<svg width="70" height="70" viewBox="0 0 70 70" fill="none" xmlns="http://www.w3.org/2000/svg">
<path d="M34.5313 67C30.0729 67 25.875 66.1667 21.9375 64.5C18.0208 62.8333 14.5625 60.5208 11.5625 57.5625C8.58333 54.6042 6.23958 51.1562 4.53125 47.2188C2.84375 43.2812 2 39.0417 2 34.5C2 30.0417 2.84375 25.8542 4.53125 21.9375C6.23958 18 8.58333 14.5417 11.5625 11.5625C14.5625 8.5625 18.0208 6.21875 21.9375 4.53125C25.875 2.84375 30.0729 2 34.5313 2C38.9896 2 43.1771 2.84375 47.0938 4.53125C51.0104 6.21875 54.4583 8.5625 57.4375 11.5625C60.4375 14.5417 62.7813 18 64.4688 21.9375C66.1563 25.8542 67 30.0417 67 34.5C67 39.0417 66.1563 43.2812 64.4688 47.2188C62.7813 51.1562 60.4375 54.6042 57.4375 57.5625C54.4583 60.5208 51.0104 62.8333 47.0938 64.5C43.1771 66.1667 38.9896 67 34.5313 67ZM38 46.0938C37.6667 46.0938 37.5 45.875 37.5 45.4375C37.5 44.5 37.8854 44.0104 38.6563 43.9688C39.1771 43.9479 39.4375 44.1458 39.4375 44.5625C39.4375 44.9583 39.3021 45.3125 39.0313 45.625C38.7604 45.9375 38.4167 46.0938 38 46.0938ZM44.9688 56.8438C45.2813 56.8438 45.5938 56.6042 45.9063 56.125C46.2188 55.625 46.5104 55.0625 46.7813 54.4375C47.0729 53.7917 47.3229 53.2708 47.5313 52.875C47.9271 52.1042 48.2188 51.4271 48.4063 50.8438C48.5938 50.2396 48.6875 49.7604 48.6875 49.4062C48.6875 49.1146 48.5938 48.9688 48.4063 48.9688C48.1979 48.9688 47.9375 49.1771 47.625 49.5938C47.3333 49.9896 47 50.4062 46.625 50.8438C46.2292 51.3021 45.7917 51.6875 45.3125 52C44.8333 52.3125 44.5938 52.5833 44.5938 52.8125C44.5938 53.3958 44.5833 54.0104 44.5625 54.6562C44.5417 55.2812 44.5313 55.7708 44.5313 56.125C44.5313 56.6042 44.6771 56.8438 44.9688 56.8438ZM34.5 61.2812C35.2292 61.2812 35.7604 61.2083 36.0938 61.0625C36.4271 60.9375 36.7917 60.7292 37.1875 60.4375C37.6667 60.0833 37.9896 59.7604 38.1563 59.4688C38.3438 59.1771 38.5313 58.9583 38.7188 58.8125C39.4479 58.2083 39.9583 57.6979 40.25 57.2812C40.5625 56.8646 40.7188 56.25 40.7188 55.4375C40.7188 55.125 40.9479 54.7604 41.4063 54.3438C41.8854 53.9271 42.3542 53.5104 42.8125 53.0938C43.2917 52.6771 43.5313 52.3021 43.5313 51.9688C43.5313 51.8438 43.5208 51.5 43.5 50.9375C43.4792 50.375 43.4583 49.75 43.4375 49.0625C43.4167 48.3542 43.4063 47.7292 43.4063 47.1875C43.4063 46.2083 43.6875 45.3438 44.25 44.5938C44.8333 43.8229 45.5 43.0625 46.25 42.3125C47 41.5625 47.6563 40.7396 48.2188 39.8438C48.8021 38.9479 49.0938 37.875 49.0938 36.625C49.0938 36.3125 49.0417 36.0208 48.9375 35.75C48.8542 35.4792 48.7292 35.3438 48.5625 35.3438C48.2292 35.3438 47.7813 35.5625 47.2188 36C46.6563 36.4375 45.8854 36.6562 44.9063 36.6562C44.5313 36.6562 44.3125 36.5208 44.25 36.25C44.1875 35.9583 44.0313 35.6458 43.7813 35.3125C43.5729 35.0417 43.2604 34.8021 42.8438 34.5938C42.4479 34.3854 42.1354 34.1667 41.9063 33.9375C41.8229 33.8542 41.7604 33.7083 41.7188 33.5C41.6771 33.2917 41.5729 33.0833 41.4063 32.875C41.3229 32.75 41.1875 32.6458 41 32.5625C40.8125 32.4583 40.6667 32.3333 40.5625 32.1875C40.3958 31.8958 40.2813 31.5625 40.2188 31.1875C40.1771 30.8125 40.0104 30.3958 39.7188 29.9375C39.6354 29.7917 39.4792 29.7083 39.25 29.6875C39.0417 29.6667 38.9063 29.5938 38.8438 29.4688C38.7813 29.3438 38.75 29.1771 38.75 28.9688C38.7708 28.7396 38.7604 28.5729 38.7188 28.4688C38.4688 27.8646 38.2396 27.4271 38.0313 27.1562C37.8438 26.8854 37.75 26.6979 37.75 26.5938C37.75 26.4062 37.8229 26.3125 37.9688 26.3125C38.0729 26.3125 38.1667 26.3854 38.25 26.5312C38.3333 26.6771 38.4583 26.8333 38.625 27C38.7292 27.1042 38.8333 27.2188 38.9375 27.3438C39.0625 27.4479 39.1667 27.5729 39.25 27.7188C39.3542 27.8646 39.4271 28.0208 39.4688 28.1875C39.5104 28.3333 39.5938 28.4896 39.7188 28.6562C39.8229 28.7812 39.9688 28.9062 40.1563 29.0312C40.3438 29.1354 40.4792 29.2604 40.5625 29.4062C40.75 29.6771 40.8542 29.9062 40.875 30.0938C40.9167 30.2812 41.1354 30.6458 41.5313 31.1875C41.9479 31.75 42.2813 32.0833 42.5313 32.1875C42.7813 32.2708 43.1042 32.6146 43.5 33.2188C43.75 33.5938 43.9583 34.0729 44.125 34.6562C44.3125 35.2396 44.5833 35.5312 44.9375 35.5312C45.1458 35.5312 45.3646 35.4792 45.5938 35.375C45.8229 35.25 46.1563 35.0625 46.5938 34.8125C46.8854 34.6458 47.2292 34.4792 47.625 34.3125C48.0417 34.125 48.3958 33.8958 48.6875 33.625C48.8333 33.5 48.9792 33.3333 49.125 33.125C49.2708 32.8958 49.4479 32.6979 49.6563 32.5312C49.8438 32.3854 50.0625 32.2708 50.3125 32.1875C50.5625 32.1042 50.7292 32 50.8125 31.875C51.1875 31.375 51.4583 30.875 51.625 30.375C51.7917 29.875 51.875 29.3125 51.875 28.6875C51.875 28.3125 51.7396 28.0417 51.4688 27.875C51.2188 27.6875 50.9479 27.4896 50.6563 27.2812C50.4479 27.1354 50.25 26.9688 50.0625 26.7812C49.875 26.5729 49.6979 26.4688 49.5313 26.4688C49.2396 26.4688 49 26.6771 48.8125 27.0938C48.6458 27.4896 48.4063 27.6875 48.0938 27.6875C47.8438 27.6875 47.4271 27.4479 46.8438 26.9688C46.7396 26.8646 46.6354 26.7083 46.5313 26.5C46.4479 26.2917 46.3542 26.1354 46.25 26.0312C45.9583 25.7396 45.6771 25.5208 45.4063 25.375C45.1354 25.2083 45 24.9896 45 24.7188C45 24.4896 45.1354 24.375 45.4063 24.375C45.7604 24.375 46.125 24.6458 46.5 25.1875C46.875 25.7083 47.3646 25.9688 47.9688 25.9688C48.2604 25.9688 48.4896 25.875 48.6563 25.6875C48.8438 25.5 49.1042 25.4062 49.4375 25.4062C49.7292 25.4062 49.9479 25.5833 50.0938 25.9375C50.2604 26.2708 50.6354 26.4375 51.2188 26.4375C51.9896 26.4375 52.5104 26.3542 52.7813 26.1875C53.0729 26.0208 53.4271 25.9375 53.8438 25.9375C54.1563 25.9375 54.4792 26.1667 54.8125 26.625C55.1667 27.0625 55.5521 27.5104 55.9688 27.9688C56.3854 28.4271 56.8229 28.6562 57.2813 28.6562C57.3854 29.0729 57.6146 29.5833 57.9688 30.1875C58.3229 30.7917 58.6979 31.4896 59.0938 32.2812C59.3438 32.7604 59.5729 33.2188 59.7813 33.6562C59.9896 34.0938 60.2292 34.3125 60.5 34.3125C60.7917 34.3125 60.9896 34.0521 61.0938 33.5312C61.2188 32.9896 61.2813 31.9375 61.2813 30.375C61.2813 29.0208 61.3021 27.6667 61.3438 26.3125C61.3854 24.9583 61.4583 23.4271 61.5625 21.7188C60.6875 19.6562 59.4167 17.6354 57.75 15.6562C56.1042 13.6771 54.2083 11.8854 52.0625 10.2812C49.9167 8.65625 47.6458 7.35417 45.25 6.375C42.875 5.39583 40.5208 4.86458 38.1875 4.78125C37.8333 5.07292 37.5938 5.375 37.4688 5.6875C37.3438 6 37.2813 6.23958 37.2813 6.40625C37.2813 6.63542 37.3958 6.75 37.625 6.75C37.8542 6.75 38.0833 6.73958 38.3125 6.71875C38.5417 6.69792 38.6563 6.77083 38.6563 6.9375C38.6563 7.27083 38.375 7.5 37.8125 7.625C37.2708 7.75 36.8542 7.8125 36.5625 7.8125C36.25 7.8125 35.8854 7.55208 35.4688 7.03125C35.0729 6.51042 34.5417 6.25 33.875 6.25C33.1042 6.25 32.2813 6.5 31.4063 7C30.5313 7.47917 29.7604 8.05208 29.0938 8.71875C28.8229 8.98958 28.4688 9.20833 28.0313 9.375C27.6146 9.54167 27.2396 9.73958 26.9063 9.96875C26.5938 10.1979 26.4375 10.5625 26.4375 11.0625C26.4375 11.3333 26.5104 11.5312 26.6563 11.6562C26.8021 11.7812 26.9479 11.8438 27.0938 11.8438C27.2604 11.8438 27.4167 11.7812 27.5625 11.6562C27.7292 11.5104 27.8438 11.4375 27.9063 11.4375C28.0104 11.4375 28.0729 11.625 28.0938 12C28.1146 12.375 28.3229 12.5625 28.7188 12.5625C28.9479 12.5625 29.1458 12.4792 29.3125 12.3125C29.5 12.1458 29.6667 11.9896 29.8125 11.8438C30 11.6562 30.1771 11.4896 30.3438 11.3438C30.5104 11.1771 30.5938 11.0521 30.5938 10.9688C30.5938 10.8438 30.5833 10.7292 30.5625 10.625C30.5417 10.5208 30.5313 10.3958 30.5313 10.25C30.5313 10.1042 30.6875 9.85417 31 9.5C31.3125 9.14583 31.5729 8.96875 31.7813 8.96875C31.9063 8.96875 31.9688 9.02083 31.9688 9.125C31.9688 9.27083 31.8542 9.5 31.625 9.8125C31.3958 10.1042 31.2813 10.3229 31.2813 10.4688C31.2813 10.5938 31.375 10.6562 31.5625 10.6562C31.7292 10.6562 31.9688 10.6042 32.2813 10.5C32.5938 10.375 32.8646 10.3125 33.0938 10.3125C33.3646 10.3125 33.5 10.3958 33.5 10.5625C33.5 10.7083 33.3125 10.8542 32.9375 11C32.5625 11.125 32.1458 11.1875 31.6875 11.1875C31.6042 11.1875 31.3854 11.3854 31.0313 11.7812C30.9063 11.9271 30.7083 12.0729 30.4375 12.2188C30.1875 12.3438 29.9792 12.4896 29.8125 12.6562C29.625 12.8438 29.4167 13.0208 29.1875 13.1875C28.9792 13.3333 28.7604 13.4062 28.5313 13.4062C28.2604 13.4062 28.0729 13.3333 27.9688 13.1875C27.8646 13.0208 27.7396 12.8646 27.5938 12.7188C27.4479 12.5729 27.1875 12.5 26.8125 12.5C26.6042 12.5 26.4583 12.5833 26.375 12.75C26.3125 12.8958 26.1667 13.0417 25.9375 13.1875C25.7708 13.2917 25.5521 13.375 25.2813 13.4375C25.0313 13.4792 24.8229 13.5729 24.6563 13.7188C24.2604 14.0521 23.9271 14.3542 23.6563 14.625C23.3854 14.875 23.1146 15 22.8438 15C22.6979 15 22.5625 14.9792 22.4375 14.9375C22.3125 14.8958 22.2188 14.875 22.1563 14.875C21.9896 14.875 21.8021 14.9583 21.5938 15.125C21.3854 15.2708 21.1979 15.4062 21.0313 15.5312C20.9479 15.6146 20.8646 15.7083 20.7813 15.8125C20.6979 15.8958 20.6563 16.0104 20.6563 16.1562C20.6563 16.3021 20.6979 16.4271 20.7813 16.5312C20.8646 16.6354 21.0625 16.8333 21.375 17.125C21.25 17.1667 21.1146 17.3542 20.9688 17.6875C20.8646 17.7083 20.7292 17.7188 20.5625 17.7188C20.3958 17.7188 20.25 17.7188 20.125 17.7188C19.7292 17.7188 19.4271 17.6875 19.2188 17.625C19.0104 17.5625 18.8854 17.5312 18.8438 17.5312C18.5104 17.5312 18.1354 18.125 17.7188 19.3125C17.6354 19.5208 17.5208 19.7292 17.375 19.9375C17.25 20.125 17.1875 20.3021 17.1875 20.4688C17.1875 20.8646 17.3125 21.2396 17.5625 21.5938C17.8333 21.9271 18.0729 22.0938 18.2813 22.0938C18.9688 22.0938 19.6042 21.8958 20.1875 21.5C20.4167 21.3333 20.6042 21.0938 20.75 20.7812C20.9167 20.4688 21.1146 20.2396 21.3438 20.0938C21.8438 19.7604 22.2396 19.4896 22.5313 19.2812C22.8438 19.0521 23 18.8438 23 18.6562C23.6042 18.6562 24.0625 18.5 24.375 18.1875C24.6875 17.8542 24.9167 17.6875 25.0625 17.6875C25.1667 17.6875 25.2396 17.7812 25.2813 17.9688C25.3438 18.1562 25.4792 18.3958 25.6875 18.6875C25.8333 18.8958 26 19.0833 26.1875 19.25C26.3958 19.3958 26.5833 19.5521 26.75 19.7188C27 19.9688 27.2396 20.2188 27.4688 20.4688C27.7188 20.7188 27.9167 20.8438 28.0625 20.8438C28.2917 20.8438 28.4375 20.7396 28.5 20.5312C28.5625 20.3229 28.5938 20.1146 28.5938 19.9062C28.5938 19.6771 28.3438 19.3333 27.8438 18.875C27.3646 18.3958 27.125 17.9688 27.125 17.5938C27.125 17.3854 27.1667 17.1979 27.25 17.0312C27.2917 17.0729 27.375 17.1771 27.5 17.3438C27.6458 17.4896 27.8438 17.6458 28.0938 17.8125C28.3021 17.9583 28.5104 18.0938 28.7188 18.2188C28.9479 18.3438 29.0938 18.5208 29.1563 18.75C29.3021 19.25 29.5 19.6979 29.75 20.0938C30 20.4688 30.1563 20.8333 30.2188 21.1875C30.2604 21.4167 30.3646 21.625 30.5313 21.8125C30.7188 22 30.8542 22.0938 30.9375 22.0938C31.1875 22.0938 31.3854 21.9896 31.5313 21.7812C31.6771 21.5729 31.75 21.3646 31.75 21.1562C31.75 20.9271 31.6979 20.7708 31.5938 20.6875C31.5104 20.6042 31.4688 20.3646 31.4688 19.9688C31.4688 19.7812 31.5521 19.6562 31.7188 19.5938C31.8854 19.5104 32.1979 19.4688 32.6563 19.4688C32.9479 19.4688 33.2083 19.3958 33.4375 19.25C33.6875 19.1042 33.8125 18.9271 33.8125 18.7188C33.8125 18.2188 33.9688 17.75 34.2813 17.3125C34.6146 16.875 34.9896 16.6562 35.4063 16.6562C35.5938 16.6562 35.7604 16.7188 35.9063 16.8438C36.0729 16.9688 36.2604 17.0312 36.4688 17.0312C36.6146 17.0312 36.8333 16.9583 37.125 16.8125C37.4375 16.6458 37.6979 16.5625 37.9063 16.5625C38.1771 16.5625 38.4271 16.6875 38.6563 16.9375C38.8854 17.1875 39.1354 17.3958 39.4063 17.5625C39.6354 17.7083 39.8438 17.7917 40.0313 17.8125C40.2188 17.8333 40.3125 17.8646 40.3125 17.9062C40.3125 18.1979 40.0729 18.4271 39.5938 18.5938C39.1354 18.7604 38.5938 18.8438 37.9688 18.8438C37.7396 18.8438 37.5417 18.7812 37.375 18.6562C37.2083 18.5104 37.0104 18.4375 36.7813 18.4375C36.5313 18.4375 36.3021 18.4896 36.0938 18.5938C35.8854 18.6771 35.6458 18.75 35.375 18.8125C34.8125 18.9375 34.2813 19.1354 33.7813 19.4062C33.2813 19.6562 33.0313 19.9479 33.0313 20.2812C33.0313 20.5521 33.1771 20.9062 33.4688 21.3438C33.7604 21.7604 34.1979 21.9688 34.7813 21.9688C34.9063 21.9688 35.0208 21.9479 35.125 21.9062C35.2292 21.8646 35.3542 21.8229 35.5 21.7812C35.6042 21.7396 35.7292 21.7292 35.875 21.75C36.0208 21.75 36.1458 21.75 36.25 21.75C36.5417 21.75 36.7813 21.6667 36.9688 21.5C37.1771 21.3333 37.3854 21.25 37.5938 21.25C37.6979 21.25 37.7708 21.3229 37.8125 21.4688C37.8542 21.5938 37.875 21.8021 37.875 22.0938C37.875 23.0729 37.8438 23.7083 37.7813 24C37.7188 24.2708 37.5104 24.4062 37.1563 24.4062C36.8229 24.4062 36.6354 24.5208 36.5938 24.75C36.5521 24.9792 36.3854 25.0938 36.0938 25.0938C35.2188 25.0938 34.3021 24.9271 33.3438 24.5938C32.3854 24.2604 31.4167 24.0938 30.4375 24.0938C29.9792 24.0938 29.6875 24.1875 29.5625 24.375C29.4583 24.5417 29.375 24.7188 29.3125 24.9062C29.2708 25.0729 29.125 25.1562 28.875 25.1562C28.4375 25.1562 28.0521 25.0104 27.7188 24.7188C27.3854 24.4271 26.9792 24.1458 26.5 23.875C26.2917 23.7708 26.0208 23.6875 25.6875 23.625C25.375 23.5417 25.2188 23.4167 25.2188 23.25C25.2188 23.0833 25.2708 22.9375 25.375 22.8125C25.5 22.6667 25.5625 22.5208 25.5625 22.375C25.5625 22.1458 25.3542 21.9479 24.9375 21.7812C24.5417 21.5938 24.1875 21.5 23.875 21.5C23.6042 21.5 23.1563 21.5417 22.5313 21.625C21.9063 21.7083 21.4479 21.75 21.1563 21.75C20.7396 21.75 20.3958 21.9062 20.125 22.2188C19.8542 22.5312 19.5625 22.6875 19.25 22.6875C18.9792 22.6875 18.6458 22.6667 18.25 22.625C17.875 22.5833 17.5208 22.5625 17.1875 22.5625C16.7292 22.5625 16.2708 22.8021 15.8125 23.2812C15.375 23.7396 15.1042 24.2188 15 24.7188C14.8958 25.1979 14.6979 25.5625 14.4062 25.8125C14.1354 26.0417 13.7604 26.25 13.2812 26.4375C13.1354 26.5 12.9583 26.7292 12.75 27.125C12.5625 27.5208 12.3646 27.875 12.1562 28.1875C11.9479 28.5 11.7396 28.75 11.5312 28.9375C11.3229 29.1042 11.2188 29.3542 11.2188 29.6875C11.2188 31.0208 11.0312 32.1667 10.6562 33.125C10.2812 34.0625 10.0938 35.0521 10.0938 36.0938C10.0938 37.0938 10.4271 37.7188 11.0938 37.9688C11.2812 38.0312 11.5729 38.375 11.9688 39C12.3646 39.6042 12.8021 40.2083 13.2812 40.8125C13.7604 41.3958 14.2083 41.6875 14.625 41.6875C14.8333 41.6875 15.0313 41.625 15.2188 41.5C15.4063 41.375 15.5729 41.3125 15.7188 41.3125C15.9688 41.3125 16.1875 41.4375 16.375 41.6875C16.5625 41.9375 16.875 42.0625 17.3125 42.0625C17.7917 42.0625 18.2604 41.9062 18.7188 41.5938C19.1771 41.2604 19.5729 41.0938 19.9063 41.0938C20.1563 41.0938 20.3438 41.1979 20.4688 41.4062C20.5938 41.5938 20.7604 41.7917 20.9688 42C21.1979 42.1875 21.5521 42.2812 22.0313 42.2812C22.9688 42.2812 23.4375 42.6458 23.4375 43.375C23.4375 43.6458 23.4167 43.9062 23.375 44.1562C23.3542 44.4062 23.3438 44.7083 23.3438 45.0625C23.3438 45.7708 23.6042 46.3854 24.125 46.9062C24.6667 47.4271 25.2188 48.0312 25.7813 48.7188C26.3438 49.3854 26.6771 50.3125 26.7813 51.5C26.5521 51.7083 26.3542 51.9792 26.1875 52.3125C26.0417 52.6458 25.9688 53.0833 25.9688 53.625C25.9688 53.8542 26.1563 54.2812 26.5313 54.9062C26.9063 55.5312 27.3958 56.1667 28 56.8125C28.2708 57.0833 28.5208 57.3646 28.75 57.6562C28.9792 57.9688 29.2292 58.2917 29.5 58.625C29.6667 58.8333 29.875 59 30.125 59.125C30.375 59.2708 30.5833 59.4479 30.75 59.6562C31.2917 60.2812 31.8125 60.7083 32.3125 60.9375C32.8333 61.1667 33.5625 61.2812 34.5 61.2812ZM24.6563 20.7188C24.8229 20.7188 24.9792 20.5729 25.125 20.2812C25.2708 19.9896 25.3438 19.6458 25.3438 19.25C25.3438 18.8542 25.2292 18.6562 25 18.6562C24.5 18.6562 24.25 19.0729 24.25 19.9062C24.25 20.4479 24.3854 20.7188 24.6563 20.7188ZM22.875 14.3438C23.1667 14.3438 23.4063 14.1771 23.5938 13.8438C23.8021 13.4896 23.9063 12.8438 23.9063 11.9062C23.9063 11.6562 23.875 11.4271 23.8125 11.2188C23.75 11.0104 23.5938 10.9062 23.3438 10.9062C22.8229 10.9062 22.5625 11.3542 22.5625 12.25C22.5625 12.3958 22.4896 12.5 22.3438 12.5625C22.2188 12.625 21.9792 12.6562 21.625 12.6562C21.375 12.6562 21.0833 12.7812 20.75 13.0312C20.4167 13.2812 20.25 13.5521 20.25 13.8438C20.25 14.0312 20.4063 14.1667 20.7188 14.25C21.0521 14.3125 21.7708 14.3438 22.875 14.3438ZM36.625 22.9375C37 22.9375 37.1875 22.7812 37.1875 22.4688C37.1875 22.1771 37 22.0312 36.625 22.0312C36.25 22.0312 36.0625 22.1771 36.0625 22.4688C36.0625 22.7812 36.25 22.9375 36.625 22.9375ZM20.0938 10.2188C20.3229 10.2188 20.6042 10.1458 20.9375 10C21.2917 9.83333 21.6667 9.67708 22.0625 9.53125C22.6667 9.30208 23.3229 9.04167 24.0313 8.75C24.7604 8.45833 25.4792 8.16667 26.1875 7.875C27.25 7.4375 28.2604 7.08333 29.2188 6.8125C30.1771 6.54167 30.6563 6.27083 30.6563 6C30.6563 5.77083 30.4479 5.61458 30.0313 5.53125C29.6146 5.44792 29.1354 5.38542 28.5938 5.34375C28.0521 5.30208 27.5938 5.25 27.2188 5.1875L22.0625 6.90625C21.3125 7.46875 20.6875 8.03125 20.1875 8.59375C19.7083 9.15625 19.4688 9.58333 19.4688 9.875C19.4688 10.1042 19.6771 10.2188 20.0938 10.2188ZM45.7813 21C45.0521 21 44.5417 20.8438 44.25 20.5312C43.9583 20.2188 43.7396 19.8438 43.5938 19.4062C43.4688 18.9479 43.2604 18.5312 42.9688 18.1562C42.6771 17.7396 42.3646 17.4792 42.0313 17.375C41.7188 17.25 41.5625 16.9062 41.5625 16.3438C41.5625 15.9271 41.6771 15.6042 41.9063 15.375C42.1563 15.125 42.4271 15 42.7188 15C42.9688 15 43.1875 15.0938 43.375 15.2812C43.5833 15.4479 43.6875 15.6458 43.6875 15.875C43.6875 16.0208 43.6667 16.1458 43.625 16.25C43.6042 16.3542 43.5938 16.4375 43.5938 16.5C43.5938 16.7083 43.8646 17 44.4063 17.375C44.9479 17.7292 45.4896 18.1458 46.0313 18.625C46.5729 19.1042 46.8438 19.6354 46.8438 20.2188C46.8438 20.4271 46.7708 20.6146 46.625 20.7812C46.4792 20.9271 46.1979 21 45.7813 21Z" fill="url(#paint0_linear_3109_1120)"/>
<defs>
<linearGradient id="paint0_linear_3109_1120" x1="-279.469" y1="34.875" x2="489.531" y2="34.875" gradientUnits="userSpaceOnUse">
<stop stop-color="#1E9130"/>
<stop offset="0.224" stop-color="#29B147"/>
<stop offset="0.659" stop-color="#58C631"/>
<stop offset="0.919" stop-color="#76DA38"/>
</linearGradient>
</defs>
</svg>
