<svg width="1512" height="323" viewBox="0 0 1512 323" fill="none" xmlns="http://www.w3.org/2000/svg">
<g clip-path="url(#clip0_3099_1115)">
<path fill-rule="evenodd" clip-rule="evenodd" d="M755.5 -1366.26C1515.53 -1366.26 2131.65 -1030.8 2131.65 -617C2131.65 -203.196 1515.53 132.258 755.5 132.258C-4.52521 132.258 -620.648 -203.196 -620.648 -617C-620.648 -1030.8 -4.52521 -1366.26 755.5 -1366.26ZM755.5 -1563C1715.09 -1563 2493 -1139.46 2493 -617C2493 -94.5391 1715.09 329 755.5 329C-204.094 329 -982 -94.5391 -982 -617C-982 -1139.46 -204.094 -1563 755.5 -1563Z" fill="url(#paint0_linear_3099_1115)" fill-opacity="0.2"/>
<path d="M755.5 320C1235.16 320 1669.37 214.143 1983.62 43.0449C2297.91 -128.074 2492 -364.308 2492 -625C2492 -885.692 2297.91 -1121.93 1983.62 -1293.04C1669.37 -1464.14 1235.16 -1570 755.5 -1570C275.837 -1570 -158.367 -1464.14 -472.619 -1293.04C-786.91 -1121.93 -981 -885.692 -981 -625C-981 -364.308 -786.91 -128.074 -472.619 43.0449C-158.367 214.143 275.837 320 755.5 320ZM755.5 125.258C375.353 125.258 31.1456 41.367 -218.062 -94.3164C-467.23 -229.979 -621.648 -417.56 -621.648 -625C-621.648 -832.44 -467.23 -1020.02 -218.062 -1155.68C31.1455 -1291.37 375.353 -1375.26 755.5 -1375.26C1135.65 -1375.26 1479.85 -1291.37 1729.06 -1155.68C1978.23 -1020.02 2132.65 -832.44 2132.65 -625C2132.65 -417.56 1978.23 -229.979 1729.06 -94.3164C1479.85 41.3669 1135.65 125.258 755.5 125.258Z" stroke="url(#paint1_linear_3099_1115)" stroke-opacity="0.2" stroke-width="2"/>
</g>
<defs>
<linearGradient id="paint0_linear_3099_1115" x1="-982" y1="-617" x2="2493" y2="-617" gradientUnits="userSpaceOnUse">
<stop stop-color="#1E9130"/>
<stop offset="0.224" stop-color="#29B147"/>
<stop offset="0.659" stop-color="#58C631"/>
<stop offset="0.919" stop-color="#76DA38"/>
</linearGradient>
<linearGradient id="paint1_linear_3099_1115" x1="-982" y1="-625" x2="2493" y2="-625" gradientUnits="userSpaceOnUse">
<stop stop-color="#1E9130"/>
<stop offset="0.224" stop-color="#29B147"/>
<stop offset="0.659" stop-color="#58C631"/>
<stop offset="0.919" stop-color="#76DA38"/>
</linearGradient>
<clipPath id="clip0_3099_1115">
<rect width="1512" height="323" fill="white"/>
</clipPath>
</defs>
</svg>
